<mxfile host="65bd71144e">
    <diagram id="fak7OEHK9G_Dq5m8i10Q" name="ER">
        <mxGraphModel dx="865" dy="380" grid="1" gridSize="10" guides="1" tooltips="1" connect="1" arrows="1" fold="1" page="1" pageScale="1" pageWidth="827" pageHeight="1169" math="0" shadow="0">
            <root>
                <mxCell id="0"/>
                <mxCell id="1" parent="0"/>
                <mxCell id="-hB_Vq8IaHbcADDwnVJr-5" value="" style="group" parent="1" vertex="1" connectable="0">
                    <mxGeometry x="340" y="120" width="90" height="40" as="geometry"/>
                </mxCell>
                <mxCell id="-hB_Vq8IaHbcADDwnVJr-3" value="" style="rounded=0;whiteSpace=wrap;html=1;fillColor=#d5e8d4;strokeColor=#82b366;" parent="-hB_Vq8IaHbcADDwnVJr-5" vertex="1">
                    <mxGeometry width="90" height="40" as="geometry"/>
                </mxCell>
                <mxCell id="-hB_Vq8IaHbcADDwnVJr-4" value="USER" style="text;html=1;strokeColor=none;fillColor=none;align=center;verticalAlign=middle;whiteSpace=wrap;rounded=0;" parent="-hB_Vq8IaHbcADDwnVJr-5" vertex="1">
                    <mxGeometry x="15" y="5" width="60" height="30" as="geometry"/>
                </mxCell>
                <mxCell id="-hB_Vq8IaHbcADDwnVJr-12" value="" style="group" parent="1" vertex="1" connectable="0">
                    <mxGeometry x="229" y="40" width="80" height="40" as="geometry"/>
                </mxCell>
                <mxCell id="-hB_Vq8IaHbcADDwnVJr-1" value="" style="ellipse;whiteSpace=wrap;html=1;fillColor=#dae8fc;strokeColor=#6c8ebf;" parent="-hB_Vq8IaHbcADDwnVJr-12" vertex="1">
                    <mxGeometry width="80" height="40" as="geometry"/>
                </mxCell>
                <mxCell id="-hB_Vq8IaHbcADDwnVJr-2" value="&lt;b&gt;&lt;u&gt;id&lt;/u&gt;&lt;/b&gt;" style="text;html=1;strokeColor=none;fillColor=none;align=center;verticalAlign=middle;whiteSpace=wrap;rounded=0;" parent="-hB_Vq8IaHbcADDwnVJr-12" vertex="1">
                    <mxGeometry x="10" y="5" width="60" height="30" as="geometry"/>
                </mxCell>
                <mxCell id="-hB_Vq8IaHbcADDwnVJr-15" value="" style="group" parent="1" vertex="1" connectable="0">
                    <mxGeometry x="319" y="40" width="80" height="40" as="geometry"/>
                </mxCell>
                <mxCell id="-hB_Vq8IaHbcADDwnVJr-16" value="" style="ellipse;whiteSpace=wrap;html=1;fillColor=#dae8fc;strokeColor=#6c8ebf;" parent="-hB_Vq8IaHbcADDwnVJr-15" vertex="1">
                    <mxGeometry width="80" height="40" as="geometry"/>
                </mxCell>
                <mxCell id="-hB_Vq8IaHbcADDwnVJr-17" value="username" style="text;html=1;strokeColor=none;fillColor=none;align=center;verticalAlign=middle;whiteSpace=wrap;rounded=0;" parent="-hB_Vq8IaHbcADDwnVJr-15" vertex="1">
                    <mxGeometry x="10" y="5" width="60" height="30" as="geometry"/>
                </mxCell>
                <mxCell id="-hB_Vq8IaHbcADDwnVJr-20" value="" style="group" parent="1" vertex="1" connectable="0">
                    <mxGeometry x="409" y="40" width="80" height="40" as="geometry"/>
                </mxCell>
                <mxCell id="-hB_Vq8IaHbcADDwnVJr-21" value="" style="ellipse;whiteSpace=wrap;html=1;fillColor=#dae8fc;strokeColor=#6c8ebf;" parent="-hB_Vq8IaHbcADDwnVJr-20" vertex="1">
                    <mxGeometry width="80" height="40" as="geometry"/>
                </mxCell>
                <mxCell id="-hB_Vq8IaHbcADDwnVJr-22" value="password" style="text;html=1;strokeColor=none;fillColor=none;align=center;verticalAlign=middle;whiteSpace=wrap;rounded=0;" parent="-hB_Vq8IaHbcADDwnVJr-20" vertex="1">
                    <mxGeometry x="10" y="5" width="60" height="30" as="geometry"/>
                </mxCell>
                <mxCell id="-hB_Vq8IaHbcADDwnVJr-23" value="" style="group" parent="1" vertex="1" connectable="0">
                    <mxGeometry x="499" y="40" width="80" height="40" as="geometry"/>
                </mxCell>
                <mxCell id="-hB_Vq8IaHbcADDwnVJr-24" value="" style="ellipse;whiteSpace=wrap;html=1;fillColor=#dae8fc;strokeColor=#6c8ebf;" parent="-hB_Vq8IaHbcADDwnVJr-23" vertex="1">
                    <mxGeometry width="80" height="40" as="geometry"/>
                </mxCell>
                <mxCell id="-hB_Vq8IaHbcADDwnVJr-25" value="email" style="text;html=1;strokeColor=none;fillColor=none;align=center;verticalAlign=middle;whiteSpace=wrap;rounded=0;" parent="-hB_Vq8IaHbcADDwnVJr-23" vertex="1">
                    <mxGeometry x="10" y="5" width="60" height="30" as="geometry"/>
                </mxCell>
                <mxCell id="-hB_Vq8IaHbcADDwnVJr-26" value="" style="group" parent="1" vertex="1" connectable="0">
                    <mxGeometry x="161" y="285" width="90" height="60" as="geometry"/>
                </mxCell>
                <mxCell id="-hB_Vq8IaHbcADDwnVJr-27" value="" style="rounded=0;whiteSpace=wrap;html=1;fillColor=#d5e8d4;strokeColor=#82b366;" parent="-hB_Vq8IaHbcADDwnVJr-26" vertex="1">
                    <mxGeometry width="100" height="60" as="geometry"/>
                </mxCell>
                <mxCell id="-hB_Vq8IaHbcADDwnVJr-28" value="PROG_TOPIC" style="text;html=1;strokeColor=none;fillColor=none;align=center;verticalAlign=middle;whiteSpace=wrap;rounded=0;" parent="-hB_Vq8IaHbcADDwnVJr-26" vertex="1">
                    <mxGeometry x="20" y="7.5" width="60" height="45" as="geometry"/>
                </mxCell>
                <mxCell id="-hB_Vq8IaHbcADDwnVJr-29" value="" style="group" parent="1" vertex="1" connectable="0">
                    <mxGeometry x="155" y="505" width="111.11111111111111" height="40" as="geometry"/>
                </mxCell>
                <mxCell id="-hB_Vq8IaHbcADDwnVJr-43" value="" style="rounded=0;whiteSpace=wrap;html=1;fillColor=#d5e8d4;strokeColor=#82b366;" parent="-hB_Vq8IaHbcADDwnVJr-29" vertex="1">
                    <mxGeometry x="-4.44" y="-5" width="120" height="50" as="geometry"/>
                </mxCell>
                <mxCell id="-hB_Vq8IaHbcADDwnVJr-30" value="" style="rounded=0;whiteSpace=wrap;html=1;fillColor=#d5e8d4;strokeColor=#82b366;" parent="-hB_Vq8IaHbcADDwnVJr-29" vertex="1">
                    <mxGeometry width="111.11111111111111" height="40" as="geometry"/>
                </mxCell>
                <mxCell id="-hB_Vq8IaHbcADDwnVJr-31" value="PROG_SNIPPET" style="text;html=1;strokeColor=none;fillColor=none;align=center;verticalAlign=middle;whiteSpace=wrap;rounded=0;" parent="-hB_Vq8IaHbcADDwnVJr-29" vertex="1">
                    <mxGeometry x="22.22222222222222" y="5" width="66.66666666666667" height="30" as="geometry"/>
                </mxCell>
                <mxCell id="-hB_Vq8IaHbcADDwnVJr-32" value="" style="group" parent="1" vertex="1" connectable="0">
                    <mxGeometry x="520" y="310" width="90" height="40" as="geometry"/>
                </mxCell>
                <mxCell id="-hB_Vq8IaHbcADDwnVJr-33" value="" style="rounded=0;whiteSpace=wrap;html=1;fillColor=#d5e8d4;strokeColor=#82b366;" parent="-hB_Vq8IaHbcADDwnVJr-32" vertex="1">
                    <mxGeometry width="90" height="40" as="geometry"/>
                </mxCell>
                <mxCell id="-hB_Vq8IaHbcADDwnVJr-34" value="TAG" style="text;html=1;strokeColor=none;fillColor=none;align=center;verticalAlign=middle;whiteSpace=wrap;rounded=0;" parent="-hB_Vq8IaHbcADDwnVJr-32" vertex="1">
                    <mxGeometry x="15" y="5" width="60" height="30" as="geometry"/>
                </mxCell>
                <mxCell id="-hB_Vq8IaHbcADDwnVJr-35" value="" style="group" parent="1" vertex="1" connectable="0">
                    <mxGeometry x="459" y="505" width="120" height="40" as="geometry"/>
                </mxCell>
                <mxCell id="-hB_Vq8IaHbcADDwnVJr-36" value="" style="rounded=0;whiteSpace=wrap;html=1;fillColor=#d5e8d4;strokeColor=#82b366;" parent="-hB_Vq8IaHbcADDwnVJr-35" vertex="1">
                    <mxGeometry width="133.33333333333334" height="40" as="geometry"/>
                </mxCell>
                <mxCell id="-hB_Vq8IaHbcADDwnVJr-37" value="PROG_LANGUAGE" style="text;html=1;strokeColor=none;fillColor=none;align=center;verticalAlign=middle;whiteSpace=wrap;rounded=0;" parent="-hB_Vq8IaHbcADDwnVJr-35" vertex="1">
                    <mxGeometry x="26.666666666666664" y="5" width="80" height="30" as="geometry"/>
                </mxCell>
                <mxCell id="-hB_Vq8IaHbcADDwnVJr-46" value="" style="endArrow=oval;html=1;rounded=0;exitX=0.488;exitY=1.008;exitDx=0;exitDy=0;exitPerimeter=0;entryX=0.141;entryY=0.02;entryDx=0;entryDy=0;entryPerimeter=0;endFill=1;" parent="1" source="-hB_Vq8IaHbcADDwnVJr-1" target="-hB_Vq8IaHbcADDwnVJr-3" edge="1">
                    <mxGeometry relative="1" as="geometry">
                        <mxPoint x="280" y="100" as="sourcePoint"/>
                        <mxPoint x="440" y="100" as="targetPoint"/>
                    </mxGeometry>
                </mxCell>
                <mxCell id="-hB_Vq8IaHbcADDwnVJr-47" value="" style="endArrow=oval;html=1;rounded=0;exitX=0.5;exitY=1;exitDx=0;exitDy=0;entryX=0.277;entryY=0.004;entryDx=0;entryDy=0;endFill=1;entryPerimeter=0;" parent="1" source="-hB_Vq8IaHbcADDwnVJr-16" target="-hB_Vq8IaHbcADDwnVJr-3" edge="1">
                    <mxGeometry relative="1" as="geometry">
                        <mxPoint x="299.03999999999996" y="90.32" as="sourcePoint"/>
                        <mxPoint x="361.88" y="130.51999999999998" as="targetPoint"/>
                    </mxGeometry>
                </mxCell>
                <mxCell id="-hB_Vq8IaHbcADDwnVJr-48" value="" style="endArrow=oval;html=1;rounded=0;exitX=0.322;exitY=0.986;exitDx=0;exitDy=0;entryX=0.632;entryY=0.004;entryDx=0;entryDy=0;endFill=1;entryPerimeter=0;exitPerimeter=0;" parent="1" source="-hB_Vq8IaHbcADDwnVJr-21" target="-hB_Vq8IaHbcADDwnVJr-3" edge="1">
                    <mxGeometry relative="1" as="geometry">
                        <mxPoint x="390" y="90" as="sourcePoint"/>
                        <mxPoint x="372.5" y="130" as="targetPoint"/>
                    </mxGeometry>
                </mxCell>
                <mxCell id="-hB_Vq8IaHbcADDwnVJr-49" value="" style="endArrow=oval;html=1;rounded=0;exitX=0.5;exitY=1;exitDx=0;exitDy=0;entryX=0.786;entryY=-0.004;entryDx=0;entryDy=0;endFill=1;entryPerimeter=0;" parent="1" source="-hB_Vq8IaHbcADDwnVJr-24" target="-hB_Vq8IaHbcADDwnVJr-3" edge="1">
                    <mxGeometry relative="1" as="geometry">
                        <mxPoint x="465.7600000000001" y="89.43999999999994" as="sourcePoint"/>
                        <mxPoint x="389.3299999999999" y="129.59999999999997" as="targetPoint"/>
                    </mxGeometry>
                </mxCell>
                <mxCell id="-hB_Vq8IaHbcADDwnVJr-50" value="" style="group" parent="1" vertex="1" connectable="0">
                    <mxGeometry x="40" y="240" width="80" height="40" as="geometry"/>
                </mxCell>
                <mxCell id="-hB_Vq8IaHbcADDwnVJr-51" value="" style="ellipse;whiteSpace=wrap;html=1;fillColor=#dae8fc;strokeColor=#6c8ebf;" parent="-hB_Vq8IaHbcADDwnVJr-50" vertex="1">
                    <mxGeometry width="80" height="40" as="geometry"/>
                </mxCell>
                <mxCell id="-hB_Vq8IaHbcADDwnVJr-52" value="&lt;b&gt;&lt;u&gt;id&lt;/u&gt;&lt;/b&gt;" style="text;html=1;strokeColor=none;fillColor=none;align=center;verticalAlign=middle;whiteSpace=wrap;rounded=0;" parent="-hB_Vq8IaHbcADDwnVJr-50" vertex="1">
                    <mxGeometry x="10" y="5" width="60" height="30" as="geometry"/>
                </mxCell>
                <mxCell id="-hB_Vq8IaHbcADDwnVJr-53" value="" style="group" parent="1" vertex="1" connectable="0">
                    <mxGeometry x="40" y="340" width="80" height="40" as="geometry"/>
                </mxCell>
                <mxCell id="-hB_Vq8IaHbcADDwnVJr-54" value="" style="ellipse;whiteSpace=wrap;html=1;fillColor=#dae8fc;strokeColor=#6c8ebf;" parent="-hB_Vq8IaHbcADDwnVJr-53" vertex="1">
                    <mxGeometry width="80" height="40" as="geometry"/>
                </mxCell>
                <mxCell id="-hB_Vq8IaHbcADDwnVJr-55" value="description" style="text;html=1;strokeColor=none;fillColor=none;align=center;verticalAlign=middle;whiteSpace=wrap;rounded=0;" parent="-hB_Vq8IaHbcADDwnVJr-53" vertex="1">
                    <mxGeometry x="10" y="5" width="60" height="30" as="geometry"/>
                </mxCell>
                <mxCell id="-hB_Vq8IaHbcADDwnVJr-56" value="" style="group" parent="1" vertex="1" connectable="0">
                    <mxGeometry x="40" y="290" width="80" height="40" as="geometry"/>
                </mxCell>
                <mxCell id="-hB_Vq8IaHbcADDwnVJr-57" value="" style="ellipse;whiteSpace=wrap;html=1;fillColor=#dae8fc;strokeColor=#6c8ebf;" parent="-hB_Vq8IaHbcADDwnVJr-56" vertex="1">
                    <mxGeometry width="80" height="40" as="geometry"/>
                </mxCell>
                <mxCell id="-hB_Vq8IaHbcADDwnVJr-58" value="name" style="text;html=1;strokeColor=none;fillColor=none;align=center;verticalAlign=middle;whiteSpace=wrap;rounded=0;" parent="-hB_Vq8IaHbcADDwnVJr-56" vertex="1">
                    <mxGeometry x="10" y="5" width="60" height="30" as="geometry"/>
                </mxCell>
                <mxCell id="-hB_Vq8IaHbcADDwnVJr-60" value="" style="endArrow=oval;html=1;rounded=0;exitX=1;exitY=0.5;exitDx=0;exitDy=0;entryX=-0.002;entryY=0.075;entryDx=0;entryDy=0;entryPerimeter=0;endFill=1;" parent="1" source="-hB_Vq8IaHbcADDwnVJr-51" target="-hB_Vq8IaHbcADDwnVJr-27" edge="1">
                    <mxGeometry relative="1" as="geometry">
                        <mxPoint x="89.03999999999996" y="130.32" as="sourcePoint"/>
                        <mxPoint x="173.68999999999983" y="170.79999999999995" as="targetPoint"/>
                    </mxGeometry>
                </mxCell>
                <mxCell id="-hB_Vq8IaHbcADDwnVJr-61" value="" style="endArrow=oval;html=1;rounded=0;exitX=1;exitY=0.5;exitDx=0;exitDy=0;entryX=0;entryY=0.5;entryDx=0;entryDy=0;endFill=1;" parent="1" source="-hB_Vq8IaHbcADDwnVJr-57" target="-hB_Vq8IaHbcADDwnVJr-27" edge="1">
                    <mxGeometry relative="1" as="geometry">
                        <mxPoint x="130" y="270" as="sourcePoint"/>
                        <mxPoint x="170.80000000000018" y="303" as="targetPoint"/>
                    </mxGeometry>
                </mxCell>
                <mxCell id="-hB_Vq8IaHbcADDwnVJr-62" value="" style="endArrow=oval;html=1;rounded=0;exitX=1;exitY=0.5;exitDx=0;exitDy=0;entryX=0;entryY=1;entryDx=0;entryDy=0;endFill=1;" parent="1" source="-hB_Vq8IaHbcADDwnVJr-54" target="-hB_Vq8IaHbcADDwnVJr-27" edge="1">
                    <mxGeometry relative="1" as="geometry">
                        <mxPoint x="130" y="320" as="sourcePoint"/>
                        <mxPoint x="171" y="320" as="targetPoint"/>
                    </mxGeometry>
                </mxCell>
                <mxCell id="-hB_Vq8IaHbcADDwnVJr-63" value="" style="group" parent="1" vertex="1" connectable="0">
                    <mxGeometry x="70" y="415" width="80" height="40" as="geometry"/>
                </mxCell>
                <mxCell id="-hB_Vq8IaHbcADDwnVJr-64" value="" style="ellipse;whiteSpace=wrap;html=1;fillColor=#dae8fc;strokeColor=#6c8ebf;" parent="-hB_Vq8IaHbcADDwnVJr-63" vertex="1">
                    <mxGeometry width="80" height="40" as="geometry"/>
                </mxCell>
                <mxCell id="-hB_Vq8IaHbcADDwnVJr-65" value="&lt;b&gt;&lt;u&gt;id&lt;/u&gt;&lt;/b&gt;" style="text;html=1;strokeColor=none;fillColor=none;align=center;verticalAlign=middle;whiteSpace=wrap;rounded=0;" parent="-hB_Vq8IaHbcADDwnVJr-63" vertex="1">
                    <mxGeometry x="10" y="5" width="60" height="30" as="geometry"/>
                </mxCell>
                <mxCell id="-hB_Vq8IaHbcADDwnVJr-66" value="" style="group" parent="1" vertex="1" connectable="0">
                    <mxGeometry x="40" y="480" width="80" height="40" as="geometry"/>
                </mxCell>
                <mxCell id="-hB_Vq8IaHbcADDwnVJr-67" value="" style="ellipse;whiteSpace=wrap;html=1;fillColor=#dae8fc;strokeColor=#6c8ebf;" parent="-hB_Vq8IaHbcADDwnVJr-66" vertex="1">
                    <mxGeometry width="80" height="40" as="geometry"/>
                </mxCell>
                <mxCell id="-hB_Vq8IaHbcADDwnVJr-68" value="headline" style="text;html=1;strokeColor=none;fillColor=none;align=center;verticalAlign=middle;whiteSpace=wrap;rounded=0;" parent="-hB_Vq8IaHbcADDwnVJr-66" vertex="1">
                    <mxGeometry x="10" y="5" width="60" height="30" as="geometry"/>
                </mxCell>
                <mxCell id="-hB_Vq8IaHbcADDwnVJr-74" value="" style="group" parent="1" vertex="1" connectable="0">
                    <mxGeometry x="70" y="590" width="80" height="40" as="geometry"/>
                </mxCell>
                <mxCell id="-hB_Vq8IaHbcADDwnVJr-75" value="" style="ellipse;whiteSpace=wrap;html=1;fillColor=#dae8fc;strokeColor=#6c8ebf;" parent="-hB_Vq8IaHbcADDwnVJr-74" vertex="1">
                    <mxGeometry width="80" height="40" as="geometry"/>
                </mxCell>
                <mxCell id="-hB_Vq8IaHbcADDwnVJr-76" value="last_modified" style="text;html=1;strokeColor=none;fillColor=none;align=center;verticalAlign=middle;whiteSpace=wrap;rounded=0;" parent="-hB_Vq8IaHbcADDwnVJr-74" vertex="1">
                    <mxGeometry x="10" y="5" width="60" height="30" as="geometry"/>
                </mxCell>
                <mxCell id="-hB_Vq8IaHbcADDwnVJr-77" value="" style="group" parent="1" vertex="1" connectable="0">
                    <mxGeometry x="40" y="540" width="80" height="40" as="geometry"/>
                </mxCell>
                <mxCell id="-hB_Vq8IaHbcADDwnVJr-78" value="" style="ellipse;whiteSpace=wrap;html=1;fillColor=#dae8fc;strokeColor=#6c8ebf;" parent="-hB_Vq8IaHbcADDwnVJr-77" vertex="1">
                    <mxGeometry width="80" height="40" as="geometry"/>
                </mxCell>
                <mxCell id="-hB_Vq8IaHbcADDwnVJr-79" value="content" style="text;html=1;strokeColor=none;fillColor=none;align=center;verticalAlign=middle;whiteSpace=wrap;rounded=0;" parent="-hB_Vq8IaHbcADDwnVJr-77" vertex="1">
                    <mxGeometry x="10" y="5" width="60" height="30" as="geometry"/>
                </mxCell>
                <mxCell id="-hB_Vq8IaHbcADDwnVJr-81" style="rounded=0;orthogonalLoop=1;jettySize=auto;html=1;exitX=1;exitY=1;exitDx=0;exitDy=0;entryX=0;entryY=0;entryDx=0;entryDy=0;endArrow=oval;endFill=1;" parent="1" source="-hB_Vq8IaHbcADDwnVJr-64" target="-hB_Vq8IaHbcADDwnVJr-43" edge="1">
                    <mxGeometry relative="1" as="geometry"/>
                </mxCell>
                <mxCell id="-hB_Vq8IaHbcADDwnVJr-82" style="edgeStyle=none;rounded=0;orthogonalLoop=1;jettySize=auto;html=1;exitX=0;exitY=0.25;exitDx=0;exitDy=0;endArrow=oval;endFill=1;" parent="1" source="-hB_Vq8IaHbcADDwnVJr-43" edge="1">
                    <mxGeometry relative="1" as="geometry">
                        <mxPoint x="150.47368421052624" y="512.6666666666666" as="targetPoint"/>
                    </mxGeometry>
                </mxCell>
                <mxCell id="-hB_Vq8IaHbcADDwnVJr-85" style="edgeStyle=none;rounded=0;orthogonalLoop=1;jettySize=auto;html=1;exitX=1;exitY=0.5;exitDx=0;exitDy=0;entryX=0;entryY=0.5;entryDx=0;entryDy=0;endArrow=oval;endFill=1;" parent="1" source="-hB_Vq8IaHbcADDwnVJr-67" target="-hB_Vq8IaHbcADDwnVJr-43" edge="1">
                    <mxGeometry relative="1" as="geometry"/>
                </mxCell>
                <mxCell id="-hB_Vq8IaHbcADDwnVJr-86" style="edgeStyle=none;rounded=0;orthogonalLoop=1;jettySize=auto;html=1;exitX=1;exitY=0.5;exitDx=0;exitDy=0;entryX=0;entryY=0.75;entryDx=0;entryDy=0;endArrow=oval;endFill=1;" parent="1" source="-hB_Vq8IaHbcADDwnVJr-78" target="-hB_Vq8IaHbcADDwnVJr-43" edge="1">
                    <mxGeometry relative="1" as="geometry"/>
                </mxCell>
                <mxCell id="-hB_Vq8IaHbcADDwnVJr-88" style="edgeStyle=none;rounded=0;orthogonalLoop=1;jettySize=auto;html=1;exitX=1;exitY=0;exitDx=0;exitDy=0;entryX=0;entryY=1;entryDx=0;entryDy=0;endArrow=oval;endFill=1;" parent="1" source="-hB_Vq8IaHbcADDwnVJr-76" target="-hB_Vq8IaHbcADDwnVJr-43" edge="1">
                    <mxGeometry relative="1" as="geometry"/>
                </mxCell>
                <mxCell id="-hB_Vq8IaHbcADDwnVJr-89" value="" style="group" parent="1" vertex="1" connectable="0">
                    <mxGeometry x="640" y="260" width="80" height="40" as="geometry"/>
                </mxCell>
                <mxCell id="-hB_Vq8IaHbcADDwnVJr-90" value="" style="ellipse;whiteSpace=wrap;html=1;fillColor=#dae8fc;strokeColor=#6c8ebf;" parent="-hB_Vq8IaHbcADDwnVJr-89" vertex="1">
                    <mxGeometry width="80" height="40" as="geometry"/>
                </mxCell>
                <mxCell id="-hB_Vq8IaHbcADDwnVJr-91" value="&lt;b&gt;&lt;u&gt;id&lt;/u&gt;&lt;/b&gt;" style="text;html=1;strokeColor=none;fillColor=none;align=center;verticalAlign=middle;whiteSpace=wrap;rounded=0;" parent="-hB_Vq8IaHbcADDwnVJr-89" vertex="1">
                    <mxGeometry x="10" y="5" width="60" height="30" as="geometry"/>
                </mxCell>
                <mxCell id="-hB_Vq8IaHbcADDwnVJr-92" value="" style="group" parent="1" vertex="1" connectable="0">
                    <mxGeometry x="640" y="360" width="80" height="40" as="geometry"/>
                </mxCell>
                <mxCell id="-hB_Vq8IaHbcADDwnVJr-93" value="" style="ellipse;whiteSpace=wrap;html=1;fillColor=#dae8fc;strokeColor=#6c8ebf;" parent="-hB_Vq8IaHbcADDwnVJr-92" vertex="1">
                    <mxGeometry width="80" height="40" as="geometry"/>
                </mxCell>
                <mxCell id="-hB_Vq8IaHbcADDwnVJr-94" value="color" style="text;html=1;strokeColor=none;fillColor=none;align=center;verticalAlign=middle;whiteSpace=wrap;rounded=0;" parent="-hB_Vq8IaHbcADDwnVJr-92" vertex="1">
                    <mxGeometry x="10" y="5" width="60" height="30" as="geometry"/>
                </mxCell>
                <mxCell id="-hB_Vq8IaHbcADDwnVJr-95" value="" style="group" parent="1" vertex="1" connectable="0">
                    <mxGeometry x="640" y="310" width="80" height="40" as="geometry"/>
                </mxCell>
                <mxCell id="-hB_Vq8IaHbcADDwnVJr-96" value="" style="ellipse;whiteSpace=wrap;html=1;fillColor=#dae8fc;strokeColor=#6c8ebf;" parent="-hB_Vq8IaHbcADDwnVJr-95" vertex="1">
                    <mxGeometry width="80" height="40" as="geometry"/>
                </mxCell>
                <mxCell id="-hB_Vq8IaHbcADDwnVJr-97" value="name" style="text;html=1;strokeColor=none;fillColor=none;align=center;verticalAlign=middle;whiteSpace=wrap;rounded=0;" parent="-hB_Vq8IaHbcADDwnVJr-95" vertex="1">
                    <mxGeometry x="10" y="5" width="60" height="30" as="geometry"/>
                </mxCell>
                <mxCell id="-hB_Vq8IaHbcADDwnVJr-98" style="edgeStyle=none;rounded=0;orthogonalLoop=1;jettySize=auto;html=1;exitX=0;exitY=0.5;exitDx=0;exitDy=0;entryX=1;entryY=0.75;entryDx=0;entryDy=0;endArrow=oval;endFill=1;" parent="1" source="-hB_Vq8IaHbcADDwnVJr-93" target="-hB_Vq8IaHbcADDwnVJr-33" edge="1">
                    <mxGeometry relative="1" as="geometry"/>
                </mxCell>
                <mxCell id="-hB_Vq8IaHbcADDwnVJr-99" style="edgeStyle=none;rounded=0;orthogonalLoop=1;jettySize=auto;html=1;exitX=0;exitY=0.5;exitDx=0;exitDy=0;entryX=1;entryY=0.5;entryDx=0;entryDy=0;endArrow=oval;endFill=1;" parent="1" source="-hB_Vq8IaHbcADDwnVJr-96" target="-hB_Vq8IaHbcADDwnVJr-33" edge="1">
                    <mxGeometry relative="1" as="geometry"/>
                </mxCell>
                <mxCell id="-hB_Vq8IaHbcADDwnVJr-100" style="edgeStyle=none;rounded=0;orthogonalLoop=1;jettySize=auto;html=1;exitX=0;exitY=0.5;exitDx=0;exitDy=0;entryX=1;entryY=0.25;entryDx=0;entryDy=0;endArrow=oval;endFill=1;" parent="1" source="-hB_Vq8IaHbcADDwnVJr-90" target="-hB_Vq8IaHbcADDwnVJr-33" edge="1">
                    <mxGeometry relative="1" as="geometry"/>
                </mxCell>
                <mxCell id="-hB_Vq8IaHbcADDwnVJr-101" value="" style="group" parent="1" vertex="1" connectable="0">
                    <mxGeometry x="641" y="456" width="80" height="40" as="geometry"/>
                </mxCell>
                <mxCell id="-hB_Vq8IaHbcADDwnVJr-102" value="" style="ellipse;whiteSpace=wrap;html=1;fillColor=#dae8fc;strokeColor=#6c8ebf;" parent="-hB_Vq8IaHbcADDwnVJr-101" vertex="1">
                    <mxGeometry width="80" height="40" as="geometry"/>
                </mxCell>
                <mxCell id="-hB_Vq8IaHbcADDwnVJr-103" value="&lt;b&gt;&lt;u&gt;id&lt;/u&gt;&lt;/b&gt;" style="text;html=1;strokeColor=none;fillColor=none;align=center;verticalAlign=middle;whiteSpace=wrap;rounded=0;" parent="-hB_Vq8IaHbcADDwnVJr-101" vertex="1">
                    <mxGeometry x="10" y="5" width="60" height="30" as="geometry"/>
                </mxCell>
                <mxCell id="-hB_Vq8IaHbcADDwnVJr-104" value="" style="group" parent="1" vertex="1" connectable="0">
                    <mxGeometry x="641" y="554" width="80" height="40" as="geometry"/>
                </mxCell>
                <mxCell id="-hB_Vq8IaHbcADDwnVJr-105" value="" style="ellipse;whiteSpace=wrap;html=1;fillColor=#dae8fc;strokeColor=#6c8ebf;" parent="-hB_Vq8IaHbcADDwnVJr-104" vertex="1">
                    <mxGeometry width="80" height="40" as="geometry"/>
                </mxCell>
                <mxCell id="-hB_Vq8IaHbcADDwnVJr-106" value="version" style="text;html=1;strokeColor=none;fillColor=none;align=center;verticalAlign=middle;whiteSpace=wrap;rounded=0;" parent="-hB_Vq8IaHbcADDwnVJr-104" vertex="1">
                    <mxGeometry x="10" y="5" width="60" height="30" as="geometry"/>
                </mxCell>
                <mxCell id="-hB_Vq8IaHbcADDwnVJr-107" value="" style="group" parent="1" vertex="1" connectable="0">
                    <mxGeometry x="641" y="505" width="80" height="40" as="geometry"/>
                </mxCell>
                <mxCell id="-hB_Vq8IaHbcADDwnVJr-108" value="" style="ellipse;whiteSpace=wrap;html=1;fillColor=#dae8fc;strokeColor=#6c8ebf;" parent="-hB_Vq8IaHbcADDwnVJr-107" vertex="1">
                    <mxGeometry width="80" height="40" as="geometry"/>
                </mxCell>
                <mxCell id="-hB_Vq8IaHbcADDwnVJr-109" value="name" style="text;html=1;strokeColor=none;fillColor=none;align=center;verticalAlign=middle;whiteSpace=wrap;rounded=0;" parent="-hB_Vq8IaHbcADDwnVJr-107" vertex="1">
                    <mxGeometry x="10" y="5" width="60" height="30" as="geometry"/>
                </mxCell>
                <mxCell id="-hB_Vq8IaHbcADDwnVJr-110" style="edgeStyle=none;rounded=0;orthogonalLoop=1;jettySize=auto;html=1;exitX=0;exitY=0.5;exitDx=0;exitDy=0;entryX=1;entryY=0.25;entryDx=0;entryDy=0;endArrow=oval;endFill=1;" parent="1" source="-hB_Vq8IaHbcADDwnVJr-102" target="-hB_Vq8IaHbcADDwnVJr-36" edge="1">
                    <mxGeometry relative="1" as="geometry"/>
                </mxCell>
                <mxCell id="-hB_Vq8IaHbcADDwnVJr-111" style="edgeStyle=none;rounded=0;orthogonalLoop=1;jettySize=auto;html=1;exitX=0;exitY=0.5;exitDx=0;exitDy=0;entryX=1;entryY=0.5;entryDx=0;entryDy=0;endArrow=oval;endFill=1;" parent="1" source="-hB_Vq8IaHbcADDwnVJr-108" target="-hB_Vq8IaHbcADDwnVJr-36" edge="1">
                    <mxGeometry relative="1" as="geometry"/>
                </mxCell>
                <mxCell id="-hB_Vq8IaHbcADDwnVJr-112" style="edgeStyle=none;rounded=0;orthogonalLoop=1;jettySize=auto;html=1;exitX=0;exitY=0.5;exitDx=0;exitDy=0;entryX=1;entryY=0.75;entryDx=0;entryDy=0;endArrow=oval;endFill=1;" parent="1" source="-hB_Vq8IaHbcADDwnVJr-105" target="-hB_Vq8IaHbcADDwnVJr-36" edge="1">
                    <mxGeometry relative="1" as="geometry"/>
                </mxCell>
                <mxCell id="-hB_Vq8IaHbcADDwnVJr-124" style="edgeStyle=none;rounded=0;orthogonalLoop=1;jettySize=auto;html=1;exitX=0.5;exitY=1;exitDx=0;exitDy=0;entryX=1;entryY=0.5;entryDx=0;entryDy=0;endArrow=none;endFill=0;" parent="1" source="-hB_Vq8IaHbcADDwnVJr-121" target="-hB_Vq8IaHbcADDwnVJr-27" edge="1">
                    <mxGeometry relative="1" as="geometry">
                        <Array as="points">
                            <mxPoint x="385" y="315"/>
                        </Array>
                    </mxGeometry>
                </mxCell>
                <mxCell id="-hB_Vq8IaHbcADDwnVJr-137" value="n" style="edgeLabel;html=1;align=center;verticalAlign=middle;resizable=0;points=[];" parent="-hB_Vq8IaHbcADDwnVJr-124" vertex="1" connectable="0">
                    <mxGeometry x="0.5223" relative="1" as="geometry">
                        <mxPoint as="offset"/>
                    </mxGeometry>
                </mxCell>
                <mxCell id="-hB_Vq8IaHbcADDwnVJr-121" value="creates" style="shape=rhombus;perimeter=rhombusPerimeter;whiteSpace=wrap;html=1;align=center;fillColor=#fff2cc;strokeColor=#d6b656;" parent="1" vertex="1">
                    <mxGeometry x="347.5" y="200" width="75" height="60" as="geometry"/>
                </mxCell>
                <mxCell id="-hB_Vq8IaHbcADDwnVJr-123" style="edgeStyle=none;rounded=0;orthogonalLoop=1;jettySize=auto;html=1;entryX=0.5;entryY=0;entryDx=0;entryDy=0;endArrow=none;endFill=0;" parent="1" target="-hB_Vq8IaHbcADDwnVJr-121" edge="1">
                    <mxGeometry relative="1" as="geometry">
                        <mxPoint x="385" y="160" as="sourcePoint"/>
                    </mxGeometry>
                </mxCell>
                <mxCell id="-hB_Vq8IaHbcADDwnVJr-136" value="1" style="edgeLabel;html=1;align=center;verticalAlign=middle;resizable=0;points=[];" parent="-hB_Vq8IaHbcADDwnVJr-123" vertex="1" connectable="0">
                    <mxGeometry x="-0.25" y="1" relative="1" as="geometry">
                        <mxPoint as="offset"/>
                    </mxGeometry>
                </mxCell>
                <mxCell id="-hB_Vq8IaHbcADDwnVJr-127" style="edgeStyle=none;rounded=0;orthogonalLoop=1;jettySize=auto;html=1;exitX=0.5;exitY=1;exitDx=0;exitDy=0;entryX=0.5;entryY=0;entryDx=0;entryDy=0;endArrow=none;endFill=0;" parent="1" source="-hB_Vq8IaHbcADDwnVJr-27" target="in6xLmZMuWYATjPnG8rs-6" edge="1">
                    <mxGeometry relative="1" as="geometry">
                        <mxPoint x="211" y="375" as="targetPoint"/>
                    </mxGeometry>
                </mxCell>
                <mxCell id="-hB_Vq8IaHbcADDwnVJr-142" value="1" style="edgeLabel;html=1;align=center;verticalAlign=middle;resizable=0;points=[];" parent="-hB_Vq8IaHbcADDwnVJr-127" vertex="1" connectable="0">
                    <mxGeometry x="-0.0833" relative="1" as="geometry">
                        <mxPoint as="offset"/>
                    </mxGeometry>
                </mxCell>
                <mxCell id="-hB_Vq8IaHbcADDwnVJr-131" style="edgeStyle=none;rounded=0;orthogonalLoop=1;jettySize=auto;html=1;exitX=1;exitY=0.5;exitDx=0;exitDy=0;entryX=1;entryY=0.25;entryDx=0;entryDy=0;endArrow=none;endFill=0;" parent="1" source="-hB_Vq8IaHbcADDwnVJr-129" target="-hB_Vq8IaHbcADDwnVJr-27" edge="1">
                    <mxGeometry relative="1" as="geometry">
                        <Array as="points">
                            <mxPoint x="290" y="220"/>
                            <mxPoint x="290" y="300"/>
                        </Array>
                    </mxGeometry>
                </mxCell>
                <mxCell id="-hB_Vq8IaHbcADDwnVJr-138" value="1" style="edgeLabel;html=1;align=center;verticalAlign=middle;resizable=0;points=[];" parent="-hB_Vq8IaHbcADDwnVJr-131" vertex="1" connectable="0">
                    <mxGeometry x="0.7055" y="-4" relative="1" as="geometry">
                        <mxPoint x="1" as="offset"/>
                    </mxGeometry>
                </mxCell>
                <mxCell id="-hB_Vq8IaHbcADDwnVJr-129" value="has nested" style="shape=rhombus;perimeter=rhombusPerimeter;whiteSpace=wrap;html=1;align=center;fillColor=#fff2cc;strokeColor=#d6b656;" parent="1" vertex="1">
                    <mxGeometry x="169" y="190" width="84" height="60" as="geometry"/>
                </mxCell>
                <mxCell id="-hB_Vq8IaHbcADDwnVJr-130" style="edgeStyle=none;rounded=0;orthogonalLoop=1;jettySize=auto;html=1;exitX=0.5;exitY=0;exitDx=0;exitDy=0;entryX=0.5;entryY=1;entryDx=0;entryDy=0;endArrow=none;endFill=0;" parent="1" source="-hB_Vq8IaHbcADDwnVJr-27" target="-hB_Vq8IaHbcADDwnVJr-129" edge="1">
                    <mxGeometry relative="1" as="geometry"/>
                </mxCell>
                <mxCell id="-hB_Vq8IaHbcADDwnVJr-139" value="n" style="edgeLabel;html=1;align=center;verticalAlign=middle;resizable=0;points=[];" parent="-hB_Vq8IaHbcADDwnVJr-130" vertex="1" connectable="0">
                    <mxGeometry x="0.1429" y="-3" relative="1" as="geometry">
                        <mxPoint as="offset"/>
                    </mxGeometry>
                </mxCell>
                <mxCell id="-hB_Vq8IaHbcADDwnVJr-134" style="edgeStyle=none;rounded=0;orthogonalLoop=1;jettySize=auto;html=1;exitX=1;exitY=0.5;exitDx=0;exitDy=0;entryX=0;entryY=0.5;entryDx=0;entryDy=0;endArrow=none;endFill=0;" parent="1" source="-hB_Vq8IaHbcADDwnVJr-133" target="-hB_Vq8IaHbcADDwnVJr-33" edge="1">
                    <mxGeometry relative="1" as="geometry"/>
                </mxCell>
                <mxCell id="-hB_Vq8IaHbcADDwnVJr-141" value="m" style="edgeLabel;html=1;align=center;verticalAlign=middle;resizable=0;points=[];" parent="-hB_Vq8IaHbcADDwnVJr-134" vertex="1" connectable="0">
                    <mxGeometry x="0.1892" y="1" relative="1" as="geometry">
                        <mxPoint x="-1" as="offset"/>
                    </mxGeometry>
                </mxCell>
                <mxCell id="-hB_Vq8IaHbcADDwnVJr-135" style="edgeStyle=none;rounded=0;orthogonalLoop=1;jettySize=auto;html=1;exitX=0;exitY=0.5;exitDx=0;exitDy=0;entryX=1;entryY=0.75;entryDx=0;entryDy=0;endArrow=none;endFill=0;" parent="1" source="-hB_Vq8IaHbcADDwnVJr-133" target="-hB_Vq8IaHbcADDwnVJr-27" edge="1">
                    <mxGeometry relative="1" as="geometry"/>
                </mxCell>
                <mxCell id="-hB_Vq8IaHbcADDwnVJr-140" value="n" style="edgeLabel;html=1;align=center;verticalAlign=middle;resizable=0;points=[];" parent="-hB_Vq8IaHbcADDwnVJr-135" vertex="1" connectable="0">
                    <mxGeometry x="0.5797" y="1" relative="1" as="geometry">
                        <mxPoint as="offset"/>
                    </mxGeometry>
                </mxCell>
                <mxCell id="-hB_Vq8IaHbcADDwnVJr-133" value="has" style="shape=rhombus;perimeter=rhombusPerimeter;whiteSpace=wrap;html=1;align=center;fillColor=#fff2cc;strokeColor=#d6b656;" parent="1" vertex="1">
                    <mxGeometry x="399" y="300" width="84" height="60" as="geometry"/>
                </mxCell>
                <mxCell id="-hB_Vq8IaHbcADDwnVJr-143" value="" style="edgeStyle=none;rounded=0;orthogonalLoop=1;jettySize=auto;html=1;endArrow=none;endFill=0;entryX=0.5;entryY=1;entryDx=0;entryDy=0;" parent="1" source="-hB_Vq8IaHbcADDwnVJr-43" target="in6xLmZMuWYATjPnG8rs-6" edge="1">
                    <mxGeometry relative="1" as="geometry">
                        <mxPoint x="210.8902873426739" y="434.9216338161957" as="targetPoint"/>
                    </mxGeometry>
                </mxCell>
                <mxCell id="-hB_Vq8IaHbcADDwnVJr-144" value="&amp;nbsp; n&amp;nbsp; &amp;nbsp;" style="edgeLabel;html=1;align=center;verticalAlign=middle;resizable=0;points=[];" parent="-hB_Vq8IaHbcADDwnVJr-143" vertex="1" connectable="0">
                    <mxGeometry x="-0.2316" y="-1" relative="1" as="geometry">
                        <mxPoint x="-1" y="-1" as="offset"/>
                    </mxGeometry>
                </mxCell>
                <mxCell id="-hB_Vq8IaHbcADDwnVJr-147" style="edgeStyle=none;rounded=0;orthogonalLoop=1;jettySize=auto;html=1;exitX=1;exitY=0.5;exitDx=0;exitDy=0;endArrow=none;endFill=0;" parent="1" source="-hB_Vq8IaHbcADDwnVJr-145" edge="1">
                    <mxGeometry relative="1" as="geometry">
                        <mxPoint x="460" y="525" as="targetPoint"/>
                    </mxGeometry>
                </mxCell>
                <mxCell id="-hB_Vq8IaHbcADDwnVJr-149" value="1" style="edgeLabel;html=1;align=center;verticalAlign=middle;resizable=0;points=[];" parent="-hB_Vq8IaHbcADDwnVJr-147" vertex="1" connectable="0">
                    <mxGeometry x="0.3723" y="1" relative="1" as="geometry">
                        <mxPoint as="offset"/>
                    </mxGeometry>
                </mxCell>
                <mxCell id="-hB_Vq8IaHbcADDwnVJr-145" value="has" style="shape=rhombus;perimeter=rhombusPerimeter;whiteSpace=wrap;html=1;align=center;fillColor=#fff2cc;strokeColor=#d6b656;" parent="1" vertex="1">
                    <mxGeometry x="319" y="495" width="84" height="60" as="geometry"/>
                </mxCell>
                <mxCell id="-hB_Vq8IaHbcADDwnVJr-146" style="edgeStyle=none;rounded=0;orthogonalLoop=1;jettySize=auto;html=1;exitX=1;exitY=0.5;exitDx=0;exitDy=0;entryX=0;entryY=0.5;entryDx=0;entryDy=0;endArrow=none;endFill=0;" parent="1" source="-hB_Vq8IaHbcADDwnVJr-30" target="-hB_Vq8IaHbcADDwnVJr-145" edge="1">
                    <mxGeometry relative="1" as="geometry"/>
                </mxCell>
                <mxCell id="-hB_Vq8IaHbcADDwnVJr-148" value="n" style="edgeLabel;html=1;align=center;verticalAlign=middle;resizable=0;points=[];" parent="-hB_Vq8IaHbcADDwnVJr-146" vertex="1" connectable="0">
                    <mxGeometry x="-0.1989" y="1" relative="1" as="geometry">
                        <mxPoint as="offset"/>
                    </mxGeometry>
                </mxCell>
                <mxCell id="2" value="" style="group" parent="1" vertex="1" connectable="0">
                    <mxGeometry x="140" y="620" width="80" height="40" as="geometry"/>
                </mxCell>
                <mxCell id="3" value="" style="ellipse;whiteSpace=wrap;html=1;fillColor=#dae8fc;strokeColor=#6c8ebf;" parent="2" vertex="1">
                    <mxGeometry width="80" height="40" as="geometry"/>
                </mxCell>
                <mxCell id="4" value="created_at" style="text;html=1;strokeColor=none;fillColor=none;align=center;verticalAlign=middle;whiteSpace=wrap;rounded=0;" parent="2" vertex="1">
                    <mxGeometry x="10" y="5" width="60" height="30" as="geometry"/>
                </mxCell>
                <mxCell id="6" style="edgeStyle=none;rounded=0;orthogonalLoop=1;jettySize=auto;html=1;exitX=0.492;exitY=-0.05;exitDx=0;exitDy=0;entryX=0.25;entryY=1;entryDx=0;entryDy=0;endArrow=oval;endFill=1;exitPerimeter=0;" parent="1" source="3" target="-hB_Vq8IaHbcADDwnVJr-43" edge="1">
                    <mxGeometry relative="1" as="geometry">
                        <mxPoint x="150" y="605" as="sourcePoint"/>
                        <mxPoint x="160.56" y="560" as="targetPoint"/>
                    </mxGeometry>
                </mxCell>
                <mxCell id="in6xLmZMuWYATjPnG8rs-7" style="edgeStyle=orthogonalEdgeStyle;rounded=0;orthogonalLoop=1;jettySize=auto;html=1;exitX=0.556;exitY=0.955;exitDx=0;exitDy=0;entryX=0.546;entryY=0.004;entryDx=0;entryDy=0;entryPerimeter=0;endArrow=none;endFill=0;exitPerimeter=0;" parent="1" source="in6xLmZMuWYATjPnG8rs-6" target="-hB_Vq8IaHbcADDwnVJr-43" edge="1">
                    <mxGeometry relative="1" as="geometry">
                        <Array as="points">
                            <mxPoint x="216" y="440"/>
                            <mxPoint x="216" y="440"/>
                            <mxPoint x="216" y="470"/>
                            <mxPoint x="216" y="470"/>
                        </Array>
                    </mxGeometry>
                </mxCell>
                <mxCell id="in6xLmZMuWYATjPnG8rs-9" value="&amp;nbsp;" style="edgeLabel;html=1;align=center;verticalAlign=middle;resizable=0;points=[];" parent="in6xLmZMuWYATjPnG8rs-7" vertex="1" connectable="0">
                    <mxGeometry x="0.2346" relative="1" as="geometry">
                        <mxPoint as="offset"/>
                    </mxGeometry>
                </mxCell>
                <mxCell id="in6xLmZMuWYATjPnG8rs-6" value="has" style="shape=rhombus;double=1;perimeter=rhombusPerimeter;whiteSpace=wrap;html=1;align=center;fillColor=#fff2cc;strokeColor=#d6b656;" parent="1" vertex="1">
                    <mxGeometry x="163.61" y="380" width="93.89" height="60" as="geometry"/>
                </mxCell>
            </root>
        </mxGraphModel>
    </diagram>
</mxfile>